<?xml version="1.0" encoding="UTF-8"?>
<svg id="Layer_1" xmlns="http://www.w3.org/2000/svg" xmlns:xlink="http://www.w3.org/1999/xlink" version="1.1" viewBox="0 0 216.86 240.46">
  <!-- Generator: Adobe Illustrator 30.4.0, SVG Export Plug-In . SVG Version: 2.1.4 Build 226)  -->
  <defs>
    <style>
      .st0 {
        fill: none;
      }

      .st1 {
        fill: #ce3d89;
      }

      .st2 {
        fill: #3c271b;
        stroke: #fff;
        stroke-miterlimit: 10;
        stroke-width: 3px;
      }

      .st3 {
        clip-path: url(#clippath);
      }
    </style>
    <clipPath id="clippath">
      <path class="st0" d="M22.17,123.17c0,47.41,38.16,85.85,85.24,85.85s85.24-38.44,85.24-85.85-38.17-85.85-85.24-85.85S22.17,75.75,22.17,123.17"/>
    </clipPath>
  </defs>
  <path class="st2" d="M199.3,123.17c0-50.19-40.69-90.87-90.87-90.87S17.55,72.98,17.55,123.17s40.69,90.87,90.87,90.87,90.87-40.69,90.87-90.87"/>
  <g class="st3">
    <path class="st1" d="M103.21,213.86c-.29,0-.58-.08-.85-.24-.76-.47-.99-1.48-.52-2.24,4.84-7.84,8.37-16.7,10.71-22.57,1.02-2.56,1.82-4.58,2.49-5.91,2.16-4.34,5.78-6.4,8.42-7.9.56-.32,1.09-.62,1.57-.92,2.01-1.27,4.52-3.16,5.54-3.94.17-.79.5-2.07.93-2.85.36-.65.81-1.83.89-3.02.03-.41-.04-.74-.1-1.06-.1-.51-.37-1.86.88-2.62.24-.14.64-.34,1.07-.53-.1-.28-.21-.56-.3-.82-.71-1.94-1.14-3.11-1.96-4.19-1.25-1.65-2.34-3.17-2.93-5.09-.45-1.44-1.09-2.74-1.09-2.75-.03-.06-.06-.13-.08-.19,0,0-.41-1.16-1.15-2.04-.66-.78-1.53-1.26-7.33-.94-1.51.08-3.11.26-4.65.43-4.84.53-9.02.99-10.95-1.13-1.88-2.07-2.23-4.6-1.03-7.51.44-1.08.09-1.38-.12-1.56-.18-.15-.35-.28-.51-.4-.75-.56-1.77-1.34-1.94-3-.05-.48-.03-.89.03-1.25-.12-.12-.24-.25-.36-.4-.65-.82-.51-1.75-.38-2.64.12-.81.29-1.91.16-3.66v-.16c-1.64-.17-3.85-.44-5.33-2.48-2.03-2.79-.81-5.21.48-7,.92-1.27,2.03-3.3,3.12-5.27.7-1.26,1.38-2.51,2.01-3.56l.31-.52c.36-.59.73-1.2.75-1.36,0-.13-.16-.66-.31-1.13l-.19-.62c-.17-.56-.32-1.02-.46-1.41-.53-1.58-.85-2.53-.64-4.93.19-2.08.56-3.83,1.51-7.21.42-1.49.82-2.67,1.13-3.53-.31-.04-.68-.07-1.11-.07-.77,0-1.43-.55-1.58-1.31-.04-.21-.34-1.96.8-3.7.09-.81.39-2.3,1.37-3.66-.14-.27-.2-.59-.16-.9.05-.53.36-.99.82-1.25,0,0,.84-.51,1.81-1.75.92-1.18,2.63-3.13,4.81-4.42.03-.13.07-.27.13-.39.27-.59.89-.94,1.51-.94-.04,0,.72-.07,2.12-.9,1.6-.94,3.42-1.95,5.52-2.59h0c-.39-.57-.39-1.3-.02-1.86.38-.56,1.06-.83,1.71-.67.01,0,2.01.45,4.25-.13.49-.13,1-.28,1.52-.44,1.98-.6,4.35-1.33,7.13-1.02.22-.29.54-.49.89-.58.15-.04,3.76-.88,7.6.49,1.52-.16,6.52-.42,10.84,2.38,1.25.23,5.35,1.14,9.38,3.77,4.69,3.06,7.33,8.4,7.44,8.63.25.52.21,1.13-.1,1.61-.15.22-.34.4-.57.53.92,1.48,1.9,3.56,2.44,6.24.85,4.18,1.92,7.75,2.32,8.46.31.55.27,1.23-.1,1.74-.22.31-.54.53-.9.62.4,2.25.85,5.8.5,8.82-1.5,12.83-3.75,23.32-3.77,23.43-.01.06-.63,2.88.67,6.32,1.21,3.19,3.02,6.23,5.52,9.23l1.13-.78c.4-.42,1.01-.74,1.74-.71.6.05,1.43.37,2.01,1.64.56,1.22,1.69,3.01,2.76,4.35.24.31,1.21.96,2.07,1.53,2.29,1.54,5.74,3.86,8.47,7.59.53.72.37,1.74-.34,2.28-.72.53-1.73.38-2.26-.35-2.39-3.27-5.44-5.32-7.66-6.82-1.3-.87-2.24-1.5-2.79-2.2-1.02-1.28-2.07-2.88-2.77-4.21l-.79.55c-.07.05-.14.09-.21.12l-1.03.5c-.65.32-1.43.16-1.91-.39-3.19-3.62-5.46-7.28-6.94-11.19-1.67-4.43-.84-8.05-.8-8.2.01-.07,2.22-10.41,3.71-23.08.49-4.18-.88-9.87-.89-9.93-.13-.54.02-1.1.4-1.5.12-.13.27-.24.42-.32-.61-1.98-1.25-4.62-1.7-6.86-.97-4.8-3.6-7.21-3.63-7.23-.51-.46-.68-1.2-.42-1.84.2-.48.6-.83,1.08-.96-1.08-1.56-2.73-3.54-4.82-4.91-4.14-2.7-8.42-3.34-8.46-3.35-.24-.03-.48-.13-.68-.27-4.04-2.77-9.22-2.01-9.27-2-.29.04-.58.01-.84-.09-1.62-.64-3.24-.74-4.39-.7-.06.25-.18.48-.35.68-.42.49-1.08.69-1.69.5-2.82-.85-5.18-.14-7.47.56-.58.18-1.13.34-1.67.48-.85.22-1.66.33-2.4.37.03.29,0,.58-.12.85-.23.52-.71.88-1.27.96-2.59.34-4.79,1.54-6.81,2.73-.73.43-1.37.73-1.91.93-.17.36-.47.64-.85.79-2.23.9-4.17,3.19-4.9,4.13-.43.55-.85,1-1.22,1.37.06.18.09.37.08.56-.02.48-.25.94-.63,1.24-1.36,1.06-1.41,2.98-1.41,3,0,.37-.14.74-.37,1.02-.08.09-.14.19-.19.28,1.38.23,2.12.66,2.29.77.68.44.94,1.33.59,2.07,0,.01-.75,1.61-1.64,4.76-.89,3.16-1.24,4.77-1.4,6.61-.15,1.71,0,2.19.48,3.59.14.42.31.91.49,1.5l.18.59c.75,2.41.61,2.9-.77,5.17l-.31.51c-.61,1.02-1.28,2.23-1.95,3.45-1.13,2.05-2.29,4.17-3.33,5.6-1.39,1.94-1,2.48-.49,3.17.63.86,1.6,1.02,3.01,1.17,2.76.29,2.87,2.01,2.93,2.94v.22c.17,2.11-.04,3.48-.17,4.39-.02.14-.04.26-.06.36.13.11.23.16.23.16.48.24.83.72.9,1.25.06.45-.06.91-.34,1.26-.02.06-.04.2-.02.45.02.2.02.24.66.72.21.15.42.32.64.51,1.52,1.28,1.9,3.21,1.04,5.29-.72,1.74-.59,2.95.42,4.06.83.91,5.28.42,8.23.1,1.59-.17,3.23-.35,4.82-.44,5.54-.31,8.15-.09,9.97,2.09.99,1.18,1.55,2.56,1.7,2.97.17.35.78,1.66,1.24,3.14.4,1.29,1.13,2.39,2.42,4.09,1.12,1.47,1.67,2.97,2.42,5.04.24.66.51,1.39.83,2.23.32.82-.08,1.76-.89,2.09-.45.19-.96.41-1.37.59.06.39.11.88.07,1.46-.1,1.46-.59,3.09-1.29,4.36-.25.46-.57,1.76-.71,2.51-.07.39-.29.74-.6.98-.14.11-3.56,2.76-6.26,4.48-.52.33-1.09.65-1.7,1-2.54,1.44-5.41,3.07-7.12,6.53-.6,1.21-1.39,3.18-2.38,5.66-2.38,5.97-5.98,14.99-10.96,23.07-.31.5-.84.77-1.37.77M103.25,130.29s0,0,0,0t0,0M103.29,130.25s-.03.03-.05.04c.01-.01.03-.03.05-.04"/>
    <path class="st1" d="M78.52,212.84c-.55,0-1.08-.28-1.39-.79l-.45-.75c-2.56-4.29-7.32-12.29-10.35-17.1-5.88-9.33-8.95-15.89-9.39-20.07-.29-2.77.75-5.23,1.85-7.84.62-1.46,1.25-2.96,1.74-4.67.92-3.2-.69-6.72-1.87-9.28-.38-.83-.71-1.55-.91-2.17-.89-2.69-.86-5.32.1-7.79.17-.43.35-.82.53-1.18.41-.8,1.39-1.11,2.18-.69.79.41,1.1,1.4.69,2.19-.13.26-.27.55-.39.86-.68,1.75-.69,3.62-.05,5.57.15.46.45,1.1.78,1.84,1.31,2.86,3.29,7.18,2.04,11.55-.54,1.9-1.25,3.58-1.87,5.05-1.01,2.4-1.82,4.3-1.61,6.23.38,3.61,3.37,9.89,8.9,18.66,3.06,4.85,7.83,12.86,10.39,17.17l.45.75c.46.77.21,1.77-.55,2.23-.26.16-.55.23-.83.23"/>
    <path class="st1" d="M48.91,197.51c-.64,0-1.24-.38-1.5-1.01-1.14-2.83-2.05-5.94-2.85-8.68-.69-2.37-1.29-4.41-1.85-5.64-.29-.64-.54-1.16-.76-1.61-.67-1.37-1.14-2.32-1.22-3.92-.77-1.19-2.92-4.67-3.59-7.86-.69-3.25-1.59-4.61-2.54-6.05-1.39-2.08-1.71-5.23-.75-7.31.46-1.01,1.04-1.6,1.51-2.09.47-.48.8-.83,1.09-1.62.1-.27.19-.55.29-.82.55-1.6,1.34-3.93,3.81-4.54.46-.85,1.28-2.13,2.45-2.92,2.42-1.65,4.82-1.15,5.09-1.09.87.2,1.41,1.08,1.21,1.95-.2.88-1.06,1.43-1.94,1.22-.04,0-1.29-.25-2.56.61-.82.56-1.51,1.9-1.69,2.33-.24.58-.79.97-1.41,1-.95.05-1.25.54-1.91,2.5-.11.3-.21.61-.32.91-.53,1.43-1.24,2.16-1.81,2.75-.38.39-.66.68-.89,1.18-.49,1.06-.25,3,.51,4.14,1.03,1.56,2.19,3.32,3.02,7.18.68,3.19,3.34,7.06,3.36,7.1.19.27.29.6.29.93,0,1.16.22,1.63.9,3,.23.47.5,1.02.81,1.7.65,1.44,1.28,3.59,2.01,6.07.78,2.67,1.67,5.7,2.75,8.38.33.83-.06,1.78-.89,2.12-.2.08-.41.12-.61.12"/>
    <path class="st1" d="M51.8,144.19c-.09,0-.18,0-.27,0-2.34-.17-3.67-2.17-3.73-2.26-.21-.33-.26-.74-.12-1.11.07-.17.7-1.75,2.28-2.98,1.13-.88,2.41-1.18,3.59-.82,1.09.33,1.96,1.18,2.34,2.28.35,1.03.13,2.17-.6,3.12-.84,1.1-2.19,1.77-3.49,1.77M50.28,141.08c.33.3.82.62,1.43.67.58.03,1.27-.3,1.67-.82.13-.17.34-.52.23-.84-.12-.35-.4-.63-.74-.73-.42-.13-.91.01-1.41.41-.55.43-.93.93-1.17,1.31M48.82,141.25h.02-.02Z"/>
    <path class="st1" d="M50.75,156.06c-1.96,0-3.44-1.89-4.88-3.72-.55-.7-1.07-1.36-1.58-1.87-1.41-1.42-2.55-1.41-2.62-1.42-.6,0-1.22-.5-1.26-1.16-.03-.66.45-1.22,1.1-1.28.23-.01,2.26-.11,4.49,2.14.61.61,1.19,1.36,1.76,2.08.95,1.21,2.2,2.84,3.06,2.79.36-.04.63-.14.72-.28.11-.16.07-.5.03-.65-.19-.64.16-1.32.79-1.52.62-.2,1.3.14,1.51.77.05.15.47,1.52-.29,2.72-.35.54-1.06,1.23-2.5,1.39-.12.01-.23.02-.35.02"/>
    <path class="st1" d="M48.98,160.65c-2.03,0-3.86-1.8-5.51-3.42-.43-.42-.86-.85-1.3-1.24-2.17-1.96-3.42-2.07-3.72-1.93-.54.4-1.25.25-1.64-.29-.4-.54-.23-1.34.31-1.74.4-.29,2.57-1.57,6.68,2.15.46.41.92.87,1.37,1.31,1.94,1.91,3.29,3.12,4.38,2.58.64-.32.74-.68.77-.8.18-.64-.22-1.53-.38-1.79-.35-.57-.18-1.32.39-1.68.57-.35,1.31-.19,1.66.38.12.19,1.16,1.94.66,3.73-.19.7-.7,1.67-2.03,2.33-.56.28-1.11.4-1.64.4"/>
    <path class="st1" d="M46.26,164.04c-1.71,0-3.76-.98-6.13-2.94-1.29-1.06-2.09-1.16-2.41-1.17-.61.07-1.24-.49-1.27-1.16-.03-.67.48-1.24,1.15-1.28,1.21-.07,2.6.52,4.06,1.72,2.49,2.06,4.49,2.82,5.48,2.11.48-.35.7-.81.66-1.43-.04-.67.47-1.25,1.13-1.29.65-.08,1.24.47,1.28,1.14.09,1.46-.5,2.72-1.67,3.57-.68.48-1.44.73-2.29.73"/>
    <path class="st1" d="M53.69,155.32c-.42,0-.82-.21-1.04-.6l-9.73-16.53c-.3-.52-.19-1.18.27-1.56.11-.09,1.14-.92,2.42-.8.75.07,1.42.45,1.94,1.09.35.43.66.96.98,1.52.37.64.78,1.36,1.15,1.66.51.43.58,1.2.15,1.72-.43.52-1.2.59-1.7.16-.13-.11-.25-.22-.37-.35l4.92,8.36c-.8-1.91-1.42-4.2-.02-5.5l.28-.35c.09-.11.2-.21.32-.28l11.72-6.94c.46-.24.82-.44,1.15-.62,1.68-.92,2.88-1.59,4.83-1.42,2.05.18,2.31.27,5.46,1.48,2.95,1.12,3.81.68,5.39-.75,1.18-1.07,2.41-2.39,3.71-3.79.77-.83,1.57-1.69,2.41-2.55,1.69-1.74,4.69-3.05,6.47-3.73l-5.88-10.13c-1.45,1.24-4.05,3.23-6.37,3.87-1.15.32-2.28.6-3.37.87-1.85.47-3.6.91-5.12,1.42-2.01.69-2.81,1.24-3.25,4.24-.12.79-.2,1.42-.27,1.96-.24,1.83-.34,2.58-1.02,4.1-.86,1.92-1.86,2.58-3.69,3.78l-.56.37-9.26,5.46c-.58.34-1.32.14-1.66-.44-.34-.58-.14-1.33.43-1.67l9.72-5.76c1.71-1.13,2.23-1.47,2.8-2.74.53-1.19.6-1.71.83-3.42.07-.54.16-1.19.27-1.99.59-4.02,2.1-5.24,4.86-6.2,1.61-.55,3.41-1,5.31-1.48,1.07-.27,2.18-.55,3.32-.86,2.79-.77,6.44-4.26,6.47-4.3.27-.26.64-.37,1-.33.37.05.69.27.88.59l7.37,12.69c.19.32.22.71.08,1.06-.14.35-.42.61-.77.72-.05.01-4.86,1.52-6.88,3.6-.83.85-1.61,1.69-2.37,2.51-1.34,1.44-2.6,2.79-3.86,3.94-2.17,1.97-3.96,2.71-7.74,1.27-3.16-1.21-3.22-1.23-4.94-1.38-1.16-.1-1.86.25-3.46,1.13-.35.19-.72.4-1.13.61l-11.47,6.8-.21.26c-.05.06-.1.12-.16.17-.12.1-.4.71,1.26,4.21.19.4.35.73.44.97.62,1.57-.46,3.03-1.74,3.72-.18.1-.38.15-.57.15"/>
    <path class="st1" d="M90.31,129.36h-21.28c-.33,0-.61-.27-.61-.61s.27-.61.61-.61h21.28c.33,0,.61.27.61.61s-.27.61-.61.61"/>
  </g>
</svg>